<mxfile host="app.diagrams.net" modified="2024-07-05T19:44:20.504Z" agent="Mozilla/5.0 (Windows NT 10.0; Win64; x64) AppleWebKit/537.36 (KHTML, like Gecko) Chrome/126.0.0.0 Safari/537.36" etag="tROBl39HA-tOFRhixFYE" version="24.6.4" type="github">
  <diagram name="‫עמוד-1‬" id="xwu3_xJDyWN7KzT-khDu">
    <mxGraphModel dx="1050" dy="522" grid="1" gridSize="10" guides="1" tooltips="1" connect="1" arrows="1" fold="1" page="1" pageScale="1" pageWidth="827" pageHeight="1169" math="0" shadow="0">
      <root>
        <mxCell id="0" />
        <mxCell id="1" parent="0" />
        <mxCell id="JymTbiFLCaQnLJeh1Xi5-1" value="Delivery Manager" style="shape=umlActor;verticalLabelPosition=bottom;verticalAlign=top;html=1;outlineConnect=0;" vertex="1" parent="1">
          <mxGeometry x="40" y="440" width="50" height="90" as="geometry" />
        </mxCell>
        <mxCell id="JymTbiFLCaQnLJeh1Xi5-2" value="Start delivery" style="ellipse;whiteSpace=wrap;html=1;" vertex="1" parent="1">
          <mxGeometry x="270" y="450.5" width="140" height="70" as="geometry" />
        </mxCell>
        <mxCell id="JymTbiFLCaQnLJeh1Xi5-11" value="Checking Overweight -&amp;nbsp;&lt;div&gt;Delivery Errors&lt;/div&gt;" style="ellipse;whiteSpace=wrap;html=1;" vertex="1" parent="1">
          <mxGeometry x="490" y="450.5" width="140" height="70" as="geometry" />
        </mxCell>
        <mxCell id="JymTbiFLCaQnLJeh1Xi5-12" value="remove_destination" style="ellipse;whiteSpace=wrap;html=1;" vertex="1" parent="1">
          <mxGeometry x="700" y="313" width="140" height="70" as="geometry" />
        </mxCell>
        <mxCell id="JymTbiFLCaQnLJeh1Xi5-13" value="replace_truck" style="ellipse;whiteSpace=wrap;html=1;" vertex="1" parent="1">
          <mxGeometry x="700" y="408" width="140" height="70" as="geometry" />
        </mxCell>
        <mxCell id="JymTbiFLCaQnLJeh1Xi5-14" value="remove_items" style="ellipse;whiteSpace=wrap;html=1;" vertex="1" parent="1">
          <mxGeometry x="700" y="508" width="140" height="70" as="geometry" />
        </mxCell>
        <mxCell id="JymTbiFLCaQnLJeh1Xi5-15" value="change_destination" style="ellipse;whiteSpace=wrap;html=1;" vertex="1" parent="1">
          <mxGeometry x="700" y="608" width="140" height="70" as="geometry" />
        </mxCell>
        <mxCell id="JymTbiFLCaQnLJeh1Xi5-26" value="" style="endArrow=none;html=1;rounded=0;exitX=1;exitY=0.5;exitDx=0;exitDy=0;entryX=0;entryY=0.5;entryDx=0;entryDy=0;" edge="1" parent="1" source="JymTbiFLCaQnLJeh1Xi5-2" target="JymTbiFLCaQnLJeh1Xi5-11">
          <mxGeometry width="50" height="50" relative="1" as="geometry">
            <mxPoint x="320" y="420.5" as="sourcePoint" />
            <mxPoint x="370" y="370.5" as="targetPoint" />
          </mxGeometry>
        </mxCell>
        <mxCell id="JymTbiFLCaQnLJeh1Xi5-27" value="&amp;lt;&amp;lt;extend&amp;gt;&amp;gt;" style="html=1;verticalAlign=bottom;labelBackgroundColor=none;endArrow=open;endFill=0;dashed=1;rounded=0;exitX=1;exitY=0.5;exitDx=0;exitDy=0;entryX=0;entryY=0.5;entryDx=0;entryDy=0;" edge="1" parent="1" source="JymTbiFLCaQnLJeh1Xi5-11" target="JymTbiFLCaQnLJeh1Xi5-12">
          <mxGeometry width="160" relative="1" as="geometry">
            <mxPoint x="530" y="390.5" as="sourcePoint" />
            <mxPoint x="690" y="390.5" as="targetPoint" />
          </mxGeometry>
        </mxCell>
        <mxCell id="JymTbiFLCaQnLJeh1Xi5-28" value="&amp;lt;&amp;lt;extend&amp;gt;&amp;gt;" style="html=1;verticalAlign=bottom;labelBackgroundColor=none;endArrow=open;endFill=0;dashed=1;rounded=0;exitX=1;exitY=0.5;exitDx=0;exitDy=0;entryX=0;entryY=0.5;entryDx=0;entryDy=0;" edge="1" parent="1" source="JymTbiFLCaQnLJeh1Xi5-11" target="JymTbiFLCaQnLJeh1Xi5-13">
          <mxGeometry width="160" relative="1" as="geometry">
            <mxPoint x="640" y="495.5" as="sourcePoint" />
            <mxPoint x="710" y="358.5" as="targetPoint" />
          </mxGeometry>
        </mxCell>
        <mxCell id="JymTbiFLCaQnLJeh1Xi5-29" value="&amp;lt;&amp;lt;extend&amp;gt;&amp;gt;" style="html=1;verticalAlign=bottom;labelBackgroundColor=none;endArrow=open;endFill=0;dashed=1;rounded=0;exitX=1;exitY=0.5;exitDx=0;exitDy=0;entryX=0;entryY=0.5;entryDx=0;entryDy=0;" edge="1" parent="1" source="JymTbiFLCaQnLJeh1Xi5-11" target="JymTbiFLCaQnLJeh1Xi5-14">
          <mxGeometry width="160" relative="1" as="geometry">
            <mxPoint x="640" y="495.5" as="sourcePoint" />
            <mxPoint x="710" y="453.5" as="targetPoint" />
          </mxGeometry>
        </mxCell>
        <mxCell id="JymTbiFLCaQnLJeh1Xi5-30" value="&amp;lt;&amp;lt;extend&amp;gt;&amp;gt;" style="html=1;verticalAlign=bottom;labelBackgroundColor=none;endArrow=open;endFill=0;dashed=1;rounded=0;exitX=1;exitY=0.5;exitDx=0;exitDy=0;entryX=0;entryY=0.5;entryDx=0;entryDy=0;" edge="1" parent="1" source="JymTbiFLCaQnLJeh1Xi5-11" target="JymTbiFLCaQnLJeh1Xi5-15">
          <mxGeometry width="160" relative="1" as="geometry">
            <mxPoint x="630" y="514" as="sourcePoint" />
            <mxPoint x="700" y="572" as="targetPoint" />
          </mxGeometry>
        </mxCell>
        <mxCell id="JymTbiFLCaQnLJeh1Xi5-32" value="" style="endArrow=none;html=1;rounded=0;exitX=1;exitY=0.5;exitDx=0;exitDy=0;entryX=0;entryY=0.5;entryDx=0;entryDy=0;" edge="1" parent="1">
          <mxGeometry width="50" height="50" relative="1" as="geometry">
            <mxPoint x="100" y="484.44" as="sourcePoint" />
            <mxPoint x="265" y="485" as="targetPoint" />
          </mxGeometry>
        </mxCell>
        <mxCell id="JymTbiFLCaQnLJeh1Xi5-34" value="Driver" style="shape=umlActor;verticalLabelPosition=bottom;verticalAlign=top;html=1;outlineConnect=0;" vertex="1" parent="1">
          <mxGeometry x="40" y="730" width="50" height="90" as="geometry" />
        </mxCell>
        <mxCell id="JymTbiFLCaQnLJeh1Xi5-35" value="Start delivery" style="ellipse;whiteSpace=wrap;html=1;" vertex="1" parent="1">
          <mxGeometry x="274" y="740" width="140" height="70" as="geometry" />
        </mxCell>
        <mxCell id="JymTbiFLCaQnLJeh1Xi5-36" value="" style="endArrow=none;html=1;rounded=0;exitX=1;exitY=0.5;exitDx=0;exitDy=0;entryX=0;entryY=0.5;entryDx=0;entryDy=0;" edge="1" parent="1">
          <mxGeometry width="50" height="50" relative="1" as="geometry">
            <mxPoint x="104" y="773.94" as="sourcePoint" />
            <mxPoint x="269" y="774.5" as="targetPoint" />
          </mxGeometry>
        </mxCell>
      </root>
    </mxGraphModel>
  </diagram>
</mxfile>
